# xmcd
#
# Track frame offsets: 
#        182
#        13517
#        25772
#        39332
#        51745
#        62240
#        72340
#        84855
#        97765
#        110865
#        124057
#        136790
#        148417
#        162460
#        175227
#        185027
#        198405
#        209962
#        222712
#        236062
#
# Disc length: 3304 seconds
#
# Revision: 0
# Processed by: cddbd v1.4PL0 Copyright (c) Steve Scherf et al.
# Submitted via: ExactAudioCopy v0.95a2
#
DISCID=3b0ce614
DTITLE=Howlin' Wolf - The Very Best of Howlin' Wolf [CD1]
DYEAR=1995
DGENRE=Blues
TTITLE0=Moanin' at Midnight
TTITLE1=How Many More Years
TTITLE2=The Wolf Is At Your Door (a.k.a. Howlin' For My Baby)
TTITLE3=Dorothy Mae
TTITLE4=Work For Your Money
TTITLE5=All Night Boogie
TTITLE6=Neighbors
TTITLE7=I'm The Wolf
TTITLE8=Baby How Long
TTITLE9=Evil
TTITLE10=Fourty Four
TTITLE11=Who Will Be Next
TTITLE12=Smokestack Lightnin'
TTITLE13=I Asked For Water (She Gave Me Gasoline)
TTITLE14=The Natchez Burning
TTITLE15=Tell Me
TTITLE16=Sittin' On Top Of The World
TTITLE17=Moanin' For My Baby
TTITLE18=I'm Leaving You
TTITLE19=I've Been Abused
EXTD=
EXTT0=
EXTT1=
EXTT2=
EXTT3=
EXTT4=
EXTT5=
EXTT6=
EXTT7=
EXTT8=
EXTT9=
EXTT10=
EXTT11=
EXTT12=
EXTT13=
EXTT14=
EXTT15=
EXTT16=
EXTT17=
EXTT18=
EXTT19=
PLAYORDER=
